<svg xmlns="http://www.w3.org/2000/svg" xmlns:xlink="http://www.w3.org/1999/xlink" width="140" height="35" viewBox="0 0 140 35">
  <defs>
    <clipPath id="clip-path">
      <rect id="사각형_38260" data-name="사각형 38260" width="127.885" height="21" fill="none"/>
    </clipPath>
  </defs>
  <g id="logo-kb-insurance" transform="translate(-20 -114)">
    <rect id="사각형_38656" data-name="사각형 38656" width="140" height="35" transform="translate(20 114)" fill="none"/>
    <g id="그룹_38585" data-name="그룹 38585" transform="translate(26 121)" clip-path="url(#clip-path)">
      <path id="패스_15962" data-name="패스 15962" d="M29,10.777l-.257-.162a4.567,4.567,0,0,0-3.7-1.152,6.991,6.991,0,0,0-3.232,1.114c0-.012,0-.024,0-.035a12.617,12.617,0,0,1,.1-1.324,13.5,13.5,0,0,0,.1-1.347,3.141,3.141,0,0,0-.2-1.224.24.24,0,0,0-.232-.149,3.527,3.527,0,0,0-1.491.49l-.112.244a9.827,9.827,0,0,1-.221,1.993c0-.006-.057.162-.057.162a24.284,24.284,0,0,0-.018,5.064c.019.146.3.364.514.442a3.293,3.293,0,0,0,1.4-.271l.161-.026a.247.247,0,0,0,.208-.284s.011-.417.011-.417A4.161,4.161,0,0,1,25,10.925a2.1,2.1,0,0,1,2.013.648,2.752,2.752,0,0,1-.327,2.039,4.22,4.22,0,0,1-2.305,1.817,8.815,8.815,0,0,1-3.525.495c-.057-.036-1.3-.875-1.3-.875a18.736,18.736,0,0,0-3.7-2.2,4.47,4.47,0,0,1-.842-.6l-.126-.105c-.714-.572-2.071-1.478-3.162-2.2,0,0-.492-.33-.588-.393,0-.04,0-.123,0-.123.032-.035.717-.445.717-.445a7.215,7.215,0,0,0,1.5-.98c-.019.024.128-.075.128-.075l2.378-1.345C18.146,5.324,20.732,3.9,22.09,2.5c0,0,.066-.215.066-.215l.031-.191a1.311,1.311,0,0,0,.019-.8.251.251,0,0,0-.184-.182,5.184,5.184,0,0,0-3.674,1.7,3.29,3.29,0,0,1-.766.527l-.19.106c-1.373.782-4.466,2.7-6.085,3.736A54.235,54.235,0,0,1,12.132.895L12.086.649c0-.009-.167-.312-.167-.312L11.793.114,11.757.1a1.028,1.028,0,0,0-.781-.05l-.323.121-.431.156a.237.237,0,0,0-.179.153,26.24,26.24,0,0,0-1.571,7.4A37.147,37.147,0,0,0,4.8,5.853L4.78,5.843,4.7,5.824a2.592,2.592,0,0,1-.854-.4l-.588-.381-.9-.575c.007.006-.237-.055-.237-.055a2.815,2.815,0,0,0-1.345.9.27.27,0,0,0-.041.145.819.819,0,0,0,.041.211l.039.184.042.109a12.913,12.913,0,0,0,2.58,1.749l1.236.654L6.56,9.406c0,.009.322.255.322.255l.223.128a.407.407,0,0,1,.04.026l-3.437,2.3L1.9,13.307a10.484,10.484,0,0,1-1.041.5,1.5,1.5,0,0,0-.811.67L0,14.58l.048.071.139.1c-.006,0,.185.121.185.121l.2.138.188.029a4.787,4.787,0,0,0,1.668-.554c.808-.358,3-1.681,3.94-2.246l.4-.241a.884.884,0,0,0,.511-.248,4.9,4.9,0,0,1,.846-.512c.008,0,.151-.083.285-.157,0,.042,0,.107,0,.107a38.134,38.134,0,0,0,.52,6.565l0,.028.031.064a7.2,7.2,0,0,1,.487,1.507l.358,1.2c.008.015.1.114.1.114a2.372,2.372,0,0,0,1.241.327l.1-.012.066-.146a2.775,2.775,0,0,0,.047-.548c0-.22-.016-.462-.035-.758L11.3,19.1c-.133-2-.263-4.9-.263-6.821v-.154l1.829,1.152c2.535,1.644,6.363,4.128,8.675,4.784a.336.336,0,0,0,.336-.076s.357-.229.357-.229l.066-.026a.643.643,0,0,0,.238-.529c1.95-.1,4.669-.85,6.124-2.679a3.812,3.812,0,0,0,.817-2.321A1.969,1.969,0,0,0,29,10.777" transform="translate(0 0)" fill="#ff9d00"/>
      <path id="패스_15963" data-name="패스 15963" d="M115.511,14.05V12.507h6.483V10.218h1.8v2.289h6.393V14.05H118.907v3.6h9.953v1.561h-11.75V14.05ZM121.9,4.788h2v.363a3.463,3.463,0,0,0,.509,1.434A3.244,3.244,0,0,0,125.3,7.62a4.319,4.319,0,0,0,1.107.692,5.762,5.762,0,0,0,1.144.416,5.828,5.828,0,0,0,1.034.236c.309.055.564.091.746.109v1.562a8.628,8.628,0,0,1-1.527-.218,9.218,9.218,0,0,1-1.761-.507,7.961,7.961,0,0,1-1.707-.855,5.08,5.08,0,0,1-1.436-1.27,5.552,5.552,0,0,1-1.416,1.27,8.254,8.254,0,0,1-1.69.855,9.876,9.876,0,0,1-1.742.507,15.4,15.4,0,0,1-1.526.218V9.073a6.329,6.329,0,0,0,.764-.126,6.875,6.875,0,0,0,1.034-.235,9.048,9.048,0,0,0,1.146-.437,4.275,4.275,0,0,0,1.942-1.707,4.064,4.064,0,0,0,.49-1.417Z" transform="translate(-47.55 -1.971)" fill="#fff"/>
      <path id="패스_15964" data-name="패스 15964" d="M150,6.867h-1.4a4.545,4.545,0,0,1,.872,1.471,6.279,6.279,0,0,1,.325,2.143,6.527,6.527,0,0,1-.271,2,4,4,0,0,1-.744,1.416,2.975,2.975,0,0,1-1.107.872,3.171,3.171,0,0,1-1.344.291,3.1,3.1,0,0,1-1.344-.291,2.556,2.556,0,0,1-1.091-.872,3.753,3.753,0,0,1-.743-1.416,6.54,6.54,0,0,1-.275-2,6.26,6.26,0,0,1,.328-2.143,4.184,4.184,0,0,1,.854-1.471h-1.4V5.323h2.761V4.016h1.8V5.323H150Zm-3.668,6.611a1.283,1.283,0,0,0,1.107-.744,4.59,4.59,0,0,0,.455-2.307,4.761,4.761,0,0,0-.455-2.325,1.333,1.333,0,0,0-1.107-.726,1.288,1.288,0,0,0-1.09.726,4.561,4.561,0,0,0-.455,2.325,4.422,4.422,0,0,0,.455,2.323,1.253,1.253,0,0,0,1.09.728m7.954-8.972h1.744V18.925h-1.744v-8.28h-1.507v7.827h-1.744V4.506h1.744V9.083h1.507Z" transform="translate(-58.726 -1.653)" fill="#fff"/>
      <path id="패스_15965" data-name="패스 15965" d="M168.361,17.144h6.355V14.166h1.8v2.978h6.248v1.561h-14.4ZM181.4,5.466v7.846H169.922V5.466h1.78V7.738h7.918V5.466Zm-1.78,3.815H171.7v2.505h7.918Z" transform="translate(-69.306 -2.25)" fill="#fff"/>
      <path id="패스_15966" data-name="패스 15966" d="M206.453,4.4h1.814v7.429h-1.814V9.617h-2.2a2.486,2.486,0,0,1-.544,1.018,3.168,3.168,0,0,1-.964.744,4.869,4.869,0,0,1-1.287.437,6.969,6.969,0,0,1-1.508.145,6.441,6.441,0,0,1-1.709-.2,3.786,3.786,0,0,1-1.4-.582,2.688,2.688,0,0,1-.947-.963,2.417,2.417,0,0,1-.344-1.325,2.463,2.463,0,0,1,.344-1.325,2.819,2.819,0,0,1,.911-.947h-1.544V5.076h3.778V3.769h1.8V5.076h3.76V6.619h-1.509a3.927,3.927,0,0,1,.708.618,3.54,3.54,0,0,1,.418.817h2.235Zm1.814,14.383h-11.4V12.921h11.4Zm-8.3-8.355a4.166,4.166,0,0,0,.961-.108,2.345,2.345,0,0,0,.8-.309,1.613,1.613,0,0,0,.525-.525,1.4,1.4,0,0,0,.2-.746,1.5,1.5,0,0,0-.2-.762,2.052,2.052,0,0,0-.525-.527,3.417,3.417,0,0,0-.8-.308,5.541,5.541,0,0,0-.961-.091,5.287,5.287,0,0,0-.982.091,2.743,2.743,0,0,0-.779.308,1.673,1.673,0,0,0-.545.527,1.338,1.338,0,0,0-.2.762,1.249,1.249,0,0,0,.2.746,1.379,1.379,0,0,0,.545.525,1.986,1.986,0,0,0,.779.309,4.014,4.014,0,0,0,.982.108m6.517,4.051h-7.824v2.723h7.824Z" transform="translate(-80.382 -1.552)" fill="#fff"/>
      <path id="패스_15967" data-name="패스 15967" d="M61.474,5.008h2.268v6.357l7.63-6.357h3.212l-8.066,6.414,8.735,7.787H72.045l-8.3-7.609v7.609H61.474Z" transform="translate(-25.306 -2.061)" fill="#fff"/>
      <path id="패스_15968" data-name="패스 15968" d="M87.58,5.058h6.981c3.32,0,5.057,1.1,5.057,3.515a3.246,3.246,0,0,1-2.791,3.214v.059a3.433,3.433,0,0,1,3.364,3.462c0,2.118-1.553,3.951-5.408,3.951h-7.2Zm2.263,5.982H94.45c1.71,0,2.975-.65,2.975-2.166,0-1.318-.624-2.2-3.237-2.2H89.843Zm0,6.608h4.463c2.772,0,3.509-1.083,3.509-2.459,0-1.632-1.13-2.534-3.628-2.534H89.843Z" transform="translate(-36.052 -2.082)" fill="#fff"/>
    </g>
  </g>
</svg>
