<svg id="ico-preview-avi" xmlns="http://www.w3.org/2000/svg" width="85" height="85" viewBox="0 0 85 85">
  <g id="그룹_39038" data-name="그룹 39038" transform="translate(0 0)">
    <path id="패스_16113" data-name="패스 16113" d="M54.406,45.775Q48.723,42.5,43.038,39.22a1.889,1.889,0,0,0-3.02,1.733q-.007,3.273,0,6.541c0,2.232-.01,4.462,0,6.693A1.872,1.872,0,0,0,42.993,55.9c.96-.547,1.917-1.1,2.874-1.657,2.86-1.649,5.729-3.287,8.577-4.956a1.915,1.915,0,0,0-.038-3.511" transform="translate(-3.449 -5.046)" fill="#919091"/>
    <path id="패스_16114" data-name="패스 16114" d="M109.694,59.913A16.979,16.979,0,0,0,104.319,47.1C98.364,41.329,92.49,35.47,86.654,29.582a16.391,16.391,0,0,0-12.211-5.057c-11.891.033-23.783,0-35.674.028a16.164,16.164,0,0,0-3.75.357A13.173,13.173,0,0,0,24.708,38.236q-.029,19.407,0,38.816,0,3.5,0,7.006c0,10.633-.014.974.01,11.607.017,8.157,5.6,13.808,13.76,13.827q28.714.071,57.426-.04a14.835,14.835,0,0,0,6.125-1.279c5.256-2.5,7.659-6.916,7.659-12.647,0-10.569,0-.915,0-11.42q0-12.094.014-24.192M67.2,86.455A19.431,19.431,0,1,1,86.757,67.072,19.5,19.5,0,0,1,67.2,86.455" transform="translate(-24.695 -24.525)" fill="#919091"/>
  </g>
</svg>
