<svg xmlns="http://www.w3.org/2000/svg" width="24" height="24" viewBox="0 0 24 24">
  <g id="ico-btn-message" transform="translate(-13.6 -8)">
    <rect id="사각형_38659" data-name="사각형 38659" width="24" height="24" transform="translate(13.6 8)" fill="none"/>
    <path id="ico-message" d="M32,27H25.3A7.493,7.493,0,0,1,20,24.8a7.282,7.282,0,0,1-2.4-5.2,7.626,7.626,0,0,1,7.3-7.7h.3a7.622,7.622,0,0,1,7.4,7.6v6.8a.645.645,0,0,1-.6.6h0Zm-2.5-8.2a.909.909,0,0,0-.8.4.966.966,0,0,0,.1,1.4.758.758,0,0,0,.4.2h.2a1,1,0,0,0,1-1,.908.908,0,0,0-.3-.7,2.186,2.186,0,0,0-.5-.3h-.2Zm-4.1,0a.974.974,0,0,0-1,.8v.5c0,.4.4.7.8.8h.2a1.028,1.028,0,0,0,1-1.1,1.075,1.075,0,0,0-1-1h0Zm-4.1,0a1,1,0,1,0,1,1,.908.908,0,0,0-.3-.7A1.08,1.08,0,0,0,21.3,18.8Z" fill="#fff"/>
  </g>
</svg>
