<svg id="ico-call-incoming" xmlns="http://www.w3.org/2000/svg" width="32" height="32" viewBox="0 0 32 32">
  <rect id="사각형_37972" data-name="사각형 37972" width="32" height="32" fill="none"/>
  <g id="그룹_38447" data-name="그룹 38447" transform="translate(1 1)">
    <rect id="사각형_36983" data-name="사각형 36983" width="30" height="30" fill="none"/>
    <path id="_01" data-name="01" d="M22.337,18.249a.157.157,0,0,1-.04-.018c-1.413-.543-2.1-.9-3.727-.022-.83.38-1.784.843-2.579.256a15.446,15.446,0,0,1-1.727-1.493A14.649,14.649,0,0,1,12.8,15.22c-.574-.8-.04-1.766.3-2.575a3.93,3.93,0,0,0,.044-3.727l-.013-.04A3.61,3.61,0,0,0,9.049,6.6,3.292,3.292,0,0,0,6.4,8.847c-.6,2.857.689,5.715,2.486,8,.265.336.512.649.751.945a27.167,27.167,0,0,0,3.718,3.789c.291.243.6.5.932.768,2.257,1.837,5.092,3.175,7.958,2.632a3.27,3.27,0,0,0,2.288-2.606A3.6,3.6,0,0,0,22.337,18.249Z" transform="translate(-0.443 -0.723)" fill="#aaa"/>
    <path id="패스_15898" data-name="패스 15898" d="M31.909,1.613h0a.939.939,0,0,0,0-1.324.929.929,0,0,0-1.318,0l-3.283,3.3V.922a.932.932,0,1,0-1.863.027l0,4.894a.922.922,0,0,0,.019.185c0,.025.015.05.022.076a.811.811,0,0,0,.03.1q.021.045.045.087c.014.025.025.051.04.074a.933.933,0,0,0,.258.26c.024.016.049.027.074.041s.057.031.086.045a.809.809,0,0,0,.1.031c.025.008.05.018.076.023a.932.932,0,0,0,.183.018h4.874a.83.83,0,0,0,.085,0,.936.936,0,0,0-.084-1.871H28.625l3.283-3.3" transform="translate(-7.898 4.637)" fill="#aaa"/>
  </g>
</svg>
