<svg xmlns="http://www.w3.org/2000/svg" xmlns:xlink="http://www.w3.org/1999/xlink" width="16" height="16" viewBox="0 0 16 16">
  <defs>
    <clipPath id="clip-path">
      <rect id="사각형_38868" data-name="사각형 38868" width="12" height="12" transform="translate(-0.465 -0.119)" fill="none"/>
    </clipPath>
  </defs>
  <g id="ico-business" transform="translate(-721.686 -12755.457)">
    <g id="그룹_39046" data-name="그룹 39046" transform="translate(724.151 12757.576)">
      <g id="그룹_39045" data-name="그룹 39045" clip-path="url(#clip-path)">
        <path id="패스_16124" data-name="패스 16124" d="M13.843,3.422A2.422,2.422,0,1,1,11.422,1a2.422,2.422,0,0,1,2.422,2.422" transform="translate(-5.887 -0.654)" fill="#1d1d1d"/>
        <path id="패스_16125" data-name="패스 16125" d="M10.767,5.535a2.767,2.767,0,1,1,2.767-2.767,2.771,2.771,0,0,1-2.767,2.767m0-4.843a2.076,2.076,0,1,0,2.076,2.076A2.078,2.078,0,0,0,10.767.692" transform="translate(-5.233)" fill="#1d1d1d"/>
        <path id="패스_16126" data-name="패스 16126" d="M11.378,24.5V22.709A2.739,2.739,0,0,0,8.611,20H3.767A2.739,2.739,0,0,0,1,22.709V24.5Z" transform="translate(-0.654 -13.081)" fill="#1d1d1d"/>
        <path id="패스_16127" data-name="패스 16127" d="M10.724,24.189H.346A.346.346,0,0,1,0,23.843V22.056A3.088,3.088,0,0,1,3.113,19H7.956a3.088,3.088,0,0,1,3.113,3.056v1.787a.346.346,0,0,1-.346.346M.692,23.5h9.686V22.056a2.4,2.4,0,0,0-2.422-2.364H3.113A2.4,2.4,0,0,0,.692,22.056Z" transform="translate(0 -12.427)" fill="#1d1d1d"/>
      </g>
    </g>
    <rect id="사각형_36546" data-name="사각형 36546" width="16" height="16" transform="translate(721.686 12755.457)" fill="none" opacity="0.2"/>
  </g>
</svg>
