<svg xmlns="http://www.w3.org/2000/svg" width="32" height="32" viewBox="0 0 32 32">
  <g id="ico-mic02" transform="translate(-9.5 -5.8)">
    <rect id="사각형_36999" data-name="사각형 36999" width="32" height="32" transform="translate(9.5 5.8)" fill="none"/>
    <g id="_03" data-name=" 03">
      <path id="패스_15991" data-name="패스 15991" d="M25.2,25.2a2.9,2.9,0,0,0,2.9-2.9h0V14.8a2.95,2.95,0,0,0-5.9-.1v7.6a2.9,2.9,0,0,0,2.9,2.9h.1Z" fill="#43ac3c"/>
      <path id="패스_15992" data-name="패스 15992" d="M31.8,21.9a1.1,1.1,0,0,0-2.2,0h0a4.211,4.211,0,0,1-4.4,3.9,4.15,4.15,0,0,1-4.4-3.9,1.1,1.1,0,0,0-2.2,0h0a6.235,6.235,0,0,0,5.5,6h0v2.2H22.6a1.1,1.1,0,1,0,0,2.2h5.2a1.1,1.1,0,0,0,0-2.2H26.3V27.9h0a6.228,6.228,0,0,0,5.5-6Z" fill="#43ac3c"/>
    </g>
  </g>
</svg>
