<svg id="ico-preview-wav" xmlns="http://www.w3.org/2000/svg" width="85" height="85" viewBox="0 0 85 85">
  <g id="그룹_39039" data-name="그룹 39039">
    <path id="패스_16116" data-name="패스 16116" d="M109.694,59.912A16.971,16.971,0,0,0,104.319,47.1q-8.933-8.657-17.665-17.518a16.379,16.379,0,0,0-12.211-5.055c-11.891.031-23.783,0-35.672.026a16.185,16.185,0,0,0-3.752.357A13.173,13.173,0,0,0,24.708,38.235q-.029,19.407,0,38.817,0,3.5,0,7.006c0,10.633-.014.974.01,11.607.019,8.157,5.6,13.808,13.76,13.827q28.714.071,57.428-.04a14.832,14.832,0,0,0,6.122-1.279c5.256-2.5,7.659-6.916,7.659-12.647,0-10.569,0-.915,0-11.42q0-12.094.014-24.193M45.4,73.058a1.931,1.931,0,0,1-3.862,0V65.722a1.931,1.931,0,0,1,3.862,0Zm8.068,5.928a1.931,1.931,0,0,1-3.862,0V59.794a1.931,1.931,0,0,1,3.862,0Zm7.946,3.667a1.931,1.931,0,0,1-3.862,0V56.124a1.931,1.931,0,0,1,3.862,0Zm7.946-9.595a1.931,1.931,0,0,1-3.862,0V65.722a1.931,1.931,0,0,1,3.862,0ZM77.3,78.785a1.931,1.931,0,0,1-3.862,0V59.993a1.931,1.931,0,0,1,3.862,0ZM85.248,75.7a1.931,1.931,0,0,1-3.862,0V63.076a1.931,1.931,0,0,1,3.862,0Zm8.137-2.643a1.931,1.931,0,0,1-3.862,0V65.722a1.931,1.931,0,0,1,3.862,0Z" transform="translate(-24.695 -24.526)" fill="#919091"/>
  </g>
</svg>
