<svg id="ico-preview-img" xmlns="http://www.w3.org/2000/svg" width="85" height="85.005" viewBox="0 0 85 85.005">
  <g id="그룹_39037" data-name="그룹 39037" transform="translate(0 0)">
    <path id="패스_16108" data-name="패스 16108" d="M108.982,83.73a4.051,4.051,0,0,0-.538-1.006C101.934,76.183,95.3,69.756,88.925,63.09a9.243,9.243,0,0,0-13.519,0c-4.42,4.6-9.005,9.044-13.51,13.563-.408.411-.746.893-1.138,1.367-1.924-1.445-3.664-2.723-5.371-4.042A9.956,9.956,0,0,0,48.492,71.5a9.511,9.511,0,0,0-5.754,2.444q-8.769,7.64-17.555,15.258c-.151.13-.321.236-.682.5V88.448q0-25.661,0-51.32c0-7.351,5.284-12.619,12.672-12.621q29.824-.014,59.645,0a12.2,12.2,0,0,1,12.646,12.564q.046,22.728.007,45.457c0,.293-.04.583-.064.874-.142.111-.286.22-.427.328M45.722,36.686a9.086,9.086,0,1,0,9.135,9.105,8.944,8.944,0,0,0-9.135-9.105" transform="translate(-24.499 -24.5)" fill="#919091"/>
    <path id="패스_16109" data-name="패스 16109" d="M66.829,85.379c-9.99,0-19.982.019-29.971-.007a12.028,12.028,0,0,1-12.174-9.523,2.755,2.755,0,0,1,1.039-3.162c7.048-5.9,14.006-11.91,20.99-17.889,1.575-1.348,2.748-1.421,4.422-.187,1.823,1.346,3.61,2.737,5.44,4.066,2.963,2.151,5.839,1.979,8.434-.588,4.562-4.508,9.076-9.067,13.609-13.6.46-.46.914-.933,1.4-1.362a2.787,2.787,0,0,1,4.141.033c1.353,1.263,2.64,2.6,3.95,3.906q10.246,10.271,20.5,20.536a2.271,2.271,0,0,1,.8,1.877c-.066,1.162,0,2.328-.019,3.495A12.215,12.215,0,0,1,96.9,85.371c-10.023.026-20.048.007-30.073.007" transform="translate(-24.42 -0.38)" fill="#919091"/>
  </g>
</svg>
