<svg xmlns="http://www.w3.org/2000/svg" width="24" height="24" viewBox="0 0 24 24">
  <g id="ico-btn-hangup" transform="translate(-8.9 -10.8)">
    <rect id="사각형_38658" data-name="사각형 38658" width="24" height="24" transform="translate(8.9 10.8)" fill="none"/>
    <path id="_01" data-name=" 01" d="M14.8,26h0c1.2-.6,1.9-.8,2.4-2.4.3-.8.6-1.7,1.5-1.8a14.084,14.084,0,0,1,2-.1,6.478,6.478,0,0,1,2,.2c.9.1,1.1,1.1,1.4,1.8a3.667,3.667,0,0,0,2.3,2.4h0a3.139,3.139,0,0,0,4-1.1,2.911,2.911,0,0,0,.3-3.1c-1.4-2.2-4.1-3.2-6.7-3.5a4.1,4.1,0,0,1-1.1-.1,19.275,19.275,0,0,0-4.8,0,4.484,4.484,0,0,0-1.1.1c-2.6.3-5.2,1.2-6.7,3.4a2.9,2.9,0,0,0,.2,3.1,3.208,3.208,0,0,0,4,1.2Z" fill="#fff"/>
  </g>
</svg>
