<svg id="ico-agent" xmlns="http://www.w3.org/2000/svg" xmlns:xlink="http://www.w3.org/1999/xlink" width="16" height="16" viewBox="0 0 16 16">
  <defs>
    <clipPath id="clip-path">
      <rect id="사각형_38335" data-name="사각형 38335" width="13.873" height="12.739" fill="none"/>
    </clipPath>
  </defs>
  <rect id="사각형_38646" data-name="사각형 38646" width="16" height="16" fill="none"/>
  <g id="그룹_38832" data-name="그룹 38832" transform="translate(1 2)">
    <g id="그룹_38640" data-name="그룹 38640" clip-path="url(#clip-path)">
      <path id="패스_16022" data-name="패스 16022" d="M.7,9.771V6.57A6.061,6.061,0,0,1,6.936.7a6.061,6.061,0,0,1,6.236,5.87v3.2" transform="translate(0 0)" fill="none" stroke="#1d1d1d" stroke-linejoin="round" stroke-width="1.4"/>
      <path id="패스_16023" data-name="패스 16023" d="M2.117,7.5h0A1.417,1.417,0,0,1,3.534,8.92v1.7a1.417,1.417,0,0,1-2.834,0V8.92A1.417,1.417,0,0,1,2.117,7.5Z" transform="translate(0 0)" fill="none" stroke="#1d1d1d" stroke-linejoin="round" stroke-width="1.4"/>
      <path id="패스_16024" data-name="패스 16024" d="M11.755,7.5h0A1.417,1.417,0,0,1,13.172,8.92v1.7a1.417,1.417,0,0,1-2.834,0V8.92A1.417,1.417,0,0,1,11.755,7.5Z" transform="translate(0 0)" fill="none" stroke="#1d1d1d" stroke-linejoin="round" stroke-width="1.4"/>
    </g>
  </g>
</svg>
