<svg xmlns="http://www.w3.org/2000/svg" xmlns:xlink="http://www.w3.org/1999/xlink" width="24" height="24" viewBox="0 0 24 24">
  <defs>
    <clipPath id="clip-path">
      <rect id="사각형_38752" data-name="사각형 38752" width="24" height="24" transform="translate(12.8 12.1)" fill="none"/>
    </clipPath>
  </defs>
  <g id="ico-btn-call" transform="translate(-12.8 -12.1)" clip-path="url(#clip-path)">
    <g id="그룹_38939" data-name="그룹 38939">
      <path id="패스_16069" data-name="패스 16069" d="M31.3,26.6h0c-1.3-.5-1.9-.8-3.3,0-.7.3-1.6.8-2.3.2-.5-.4-1.1-.9-1.5-1.3a10.1,10.1,0,0,1-1.3-1.6c-.5-.7,0-1.6.3-2.3a3.25,3.25,0,0,0,0-3.3h0a3.316,3.316,0,0,0-3.7-2.1,3.068,3.068,0,0,0-2.4,2c-.5,2.6.6,5.1,2.2,7.2a5.716,5.716,0,0,0,.7.8,26.514,26.514,0,0,0,3.3,3.4,5.008,5.008,0,0,1,.8.7c2,1.6,4.6,2.8,7.1,2.4a2.66,2.66,0,0,0,2-2.3,3.25,3.25,0,0,0-2-3.7" fill="#fff"/>
    </g>
  </g>
</svg>
