<svg xmlns="http://www.w3.org/2000/svg" width="85" height="85" viewBox="0 0 85 85">
  <g id="ico-preview-docu" transform="translate(-35.731 -35.486)">
    <g id="그룹_39022" data-name="그룹 39022" transform="translate(35.731 35.486)">
      <path id="패스_16111" data-name="패스 16111" d="M109.694,59.916A16.99,16.99,0,0,0,104.319,47.1C98.364,41.329,92.492,35.47,86.654,29.58a16.4,16.4,0,0,0-12.211-5.055c-11.891.033-23.783,0-35.674.026a16.049,16.049,0,0,0-3.75.359A13.171,13.171,0,0,0,24.708,38.234q-.029,19.407,0,38.817,0,3.508,0,7.006c0,10.633-.014.979.01,11.609.017,8.155,5.6,13.806,13.76,13.825q28.714.071,57.428-.04a14.831,14.831,0,0,0,6.122-1.279c5.256-2.5,7.659-6.916,7.659-12.647,0-10.567,0-.915,0-11.42q0-12.094.014-24.188M69.447,85.792H48.211a2.453,2.453,0,1,1,0-4.906H69.447a2.453,2.453,0,1,1,0,4.906M86.179,71.83H48.211a2.452,2.452,0,1,1,0-4.9H86.179a2.452,2.452,0,1,1,0,4.9m0-13.962H48.211a2.452,2.452,0,1,1,0-4.9H86.179a2.452,2.452,0,1,1,0,4.9" transform="translate(-24.695 -24.525)" fill="#919091"/>
    </g>
  </g>
</svg>
