<svg id="ico-call-outgoing" xmlns="http://www.w3.org/2000/svg" width="32" height="32" viewBox="0 0 32 32">
  <rect id="사각형_37972" data-name="사각형 37972" width="32" height="32" fill="none"/>
  <g id="icon_call01" transform="translate(7 7)">
    <path id="_01" data-name="01" d="M21.9,17.934a.153.153,0,0,1-.039-.017c-1.375-.529-2.041-.877-3.627-.021-.808.37-1.736.821-2.51.249a15.031,15.031,0,0,1-1.68-1.453,14.255,14.255,0,0,1-1.422-1.706c-.559-.782-.039-1.719.3-2.505a3.824,3.824,0,0,0,.043-3.627l-.013-.039A3.513,3.513,0,0,0,8.973,6.6,3.2,3.2,0,0,0,6.4,8.785c-.58,2.78.67,5.561,2.419,7.787.258.327.5.632.731.92a26.436,26.436,0,0,0,3.618,3.687c.284.236.584.486.907.748,2.2,1.788,4.955,3.09,7.744,2.561a3.182,3.182,0,0,0,2.226-2.535A3.5,3.5,0,0,0,21.9,17.934Z" transform="translate(-6.256 -6.535)" fill="#aaa"/>
    <path id="패스_15899" data-name="패스 15899" d="M6.632,1.654h0A.963.963,0,0,0,6.632.3.953.953,0,0,0,5.28.3L1.914,3.678V.946A.956.956,0,1,0,0,.974L0,5.993a.945.945,0,0,0,.019.189c.005.026.016.051.023.078a.832.832,0,0,0,.031.1q.021.046.046.089c.014.026.026.052.041.076a.957.957,0,0,0,.265.266c.024.016.05.027.076.042s.058.032.088.046a.829.829,0,0,0,.1.031c.026.008.051.018.078.024a.956.956,0,0,0,.188.018h5a.851.851,0,0,0,.087,0,.96.96,0,0,0-.087-1.918H3.264L6.631,1.653" transform="translate(18.261 7.024) rotate(180)" fill="#3aaf3a"/>
  </g>
</svg>
