<svg xmlns="http://www.w3.org/2000/svg" width="32" height="32" viewBox="0 0 32 32">
  <g id="ico-call-missed" transform="translate(-8.7 -5.8)">
    <rect id="사각형_36983" data-name="사각형 36983" width="32" height="32" transform="translate(8.7 5.8)" fill="none"/>
    <path id="_01" data-name=" 01" d="M18.2,25.2h0c1.4-.6,2.1-.9,2.7-2.6.3-.9.7-1.9,1.7-2a17.852,17.852,0,0,1,2.3-.2,8.954,8.954,0,0,1,2.3.2c1,.2,1.3,1.2,1.6,2.1a4.125,4.125,0,0,0,2.6,2.7h0a3.493,3.493,0,0,0,4.5-1.3,3.194,3.194,0,0,0,.3-3.5c-1.6-2.5-4.6-3.6-7.5-3.9a4.869,4.869,0,0,1-1.2-.1,24.375,24.375,0,0,0-5.4,0,4.869,4.869,0,0,0-1.2.1c-2.9.3-5.9,1.4-7.6,3.8a3.387,3.387,0,0,0,.2,3.5A3.675,3.675,0,0,0,18,25.4Z" fill="#e34d4d"/>
  </g>
</svg>
