<svg xmlns="http://www.w3.org/2000/svg" xmlns:xlink="http://www.w3.org/1999/xlink" width="24" height="24" viewBox="0 0 24 24">
  <defs>
    <clipPath id="clip-path">
      <rect id="사각형_38641" data-name="사각형 38641" width="19" height="19" fill="none"/>
    </clipPath>
  </defs>
  <g id="ico-menu-settings-default" transform="translate(2 2.134)">
    <rect id="사각형_38652" data-name="사각형 38652" width="24" height="24" transform="translate(-2 -2.134)" fill="none"/>
    <g id="그룹_38921" data-name="그룹 38921" transform="translate(1 0.866)" clip-path="url(#clip-path)">
      <path id="패스_16066" data-name="패스 16066" d="M15.707,6.948v0a1.359,1.359,0,0,1,.013-1.051q.293-.687.532-1.4a.964.964,0,0,0-.238-.985l-.524-.522a.959.959,0,0,0-1-.23q-.674.246-1.329.544a1.36,1.36,0,0,1-1.085.027h0a1.359,1.359,0,0,1-.737-.755q-.279-.692-.609-1.361A.962.962,0,0,0,9.861.688H9.123a.96.96,0,0,0-.873.548q-.3.65-.554,1.323a1.359,1.359,0,0,1-.748.787h0a1.357,1.357,0,0,1-1.052-.012Q5.207,3.041,4.5,2.8a.964.964,0,0,0-.985.238l-.523.523a.964.964,0,0,0-.23,1.005q.247.673.544,1.327a1.356,1.356,0,0,1,.027,1.085h0a1.364,1.364,0,0,1-.755.738q-.69.277-1.36.607a.961.961,0,0,0-.53.865v.739a.961.961,0,0,0,.546.873q.651.3,1.325.556a1.338,1.338,0,0,1,.773,1.8q-.293.685-.534,1.39a.965.965,0,0,0,.238.988l.525.523a.961.961,0,0,0,1,.229q.673-.247,1.326-.544a1.366,1.366,0,0,1,1.086-.027l0,0a1.356,1.356,0,0,1,.736.754q.279.692.609,1.361a.96.96,0,0,0,.864.528h.738a.962.962,0,0,0,.873-.547q.3-.65.555-1.323a1.357,1.357,0,0,1,.749-.788l0,0a1.36,1.36,0,0,1,1.053.013q.685.292,1.389.532a.964.964,0,0,0,.986-.237l.523-.523a.961.961,0,0,0,.23-1.005q-.246-.674-.544-1.329a1.361,1.361,0,0,1-.03-1.082h0a1.357,1.357,0,0,1,.756-.739q.692-.279,1.361-.609a.963.963,0,0,0,.529-.865V9.123a.96.96,0,0,0-.548-.873q-.648-.3-1.318-.552A1.36,1.36,0,0,1,15.707,6.948ZM12.359,9.52A2.835,2.835,0,1,1,9.517,6.694h.008a2.837,2.837,0,0,1,2.834,2.83Z" transform="translate(-0.026 -0.026)" fill="none" stroke="#aaa" stroke-miterlimit="10" stroke-width="1"/>
    </g>
  </g>
</svg>
