<svg xmlns="http://www.w3.org/2000/svg" xmlns:xlink="http://www.w3.org/1999/xlink" width="24" height="24" viewBox="0 0 24 24">
  <defs>
    <clipPath id="clip-path">
      <rect id="사각형_38742" data-name="사각형 38742" width="16" height="19.2" transform="translate(14.7 11.7)" fill="none"/>
    </clipPath>
  </defs>
  <g id="ico-menu-analytics-default" transform="translate(-10.7 -9.7)">
    <rect id="사각형_38651" data-name="사각형 38651" width="24" height="24" transform="translate(10.7 9.7)" fill="none"/>
    <g id="그룹_38945" data-name="그룹 38945" clip-path="url(#clip-path)">
      <g id="그룹_38548" data-name="그룹 38548">
        <path id="패스_15957" data-name="패스 15957" d="M26.9,14h1.8a1.367,1.367,0,0,1,1.4,1.4V28.9a1.367,1.367,0,0,1-1.4,1.4H16.6a1.367,1.367,0,0,1-1.4-1.4V15.4A1.367,1.367,0,0,1,16.6,14h1.9" fill="none" stroke="#a9a9a9" stroke-miterlimit="10" stroke-width="1"/>
        <line id="선_1134" data-name="선 1134" x2="8.4" transform="translate(18.5 19.8)" fill="none" stroke="#a9a9a9" stroke-linecap="round" stroke-miterlimit="10" stroke-width="1"/>
        <line id="선_1135" data-name="선 1135" x2="8.4" transform="translate(18.5 23)" fill="none" stroke="#a9a9a9" stroke-linecap="round" stroke-miterlimit="10" stroke-width="1"/>
        <line id="선_1136" data-name="선 1136" x2="8.4" transform="translate(18.5 26.2)" fill="none" stroke="#a9a9a9" stroke-linecap="round" stroke-miterlimit="10" stroke-width="1"/>
        <rect id="사각형_38250" data-name="사각형 38250" width="8.4" height="3.2" rx="1" transform="translate(18.5 12.3)" fill="none" stroke="#a9a9a9" stroke-miterlimit="10" stroke-width="1"/>
      </g>
    </g>
  </g>
</svg>
