<svg width="250" height="50" viewBox="0 0 250 50" fill="none" xmlns="http://www.w3.org/2000/svg">
<g clip-path="url(#clip0_2_2)">
<path d="M119.762 15.7011H122.792L130.78 37.9114L138.607 15.7011H142.581L150.314 38.0185L158.396 15.7011H161.426L152.335 41.1025H148.354L140.587 18.7851L132.82 41.1025H128.84L119.748 15.7011H119.762Z" fill="#E31F26"/>
<path d="M164.564 15.7011H167.28V18.9992H164.564V15.7011ZM164.564 23.2071H167.28V41.1025H164.564V23.2071Z" fill="#E31F26"/>
<path d="M172.17 34.9277H174.699V35.8041C174.699 38.0118 175.743 38.9283 178.519 38.9283H184.332C188.406 38.9283 189.698 38.7543 189.698 36.0851V35.9446C189.698 34.2253 189.256 33.2754 186.005 33.2754H177.642C173.823 33.2754 172.404 31.9106 172.404 28.5055V27.4552C172.404 24.5451 173.889 22.9328 180.579 22.9328H184.747C190.868 22.9328 191.725 24.8997 191.725 27.4217V28.3717H189.203V28.1978C189.203 25.4616 187.564 25.388 184.593 25.388H179.857C175.977 25.388 175.12 25.8095 175.12 27.8432V28.5122C175.12 29.9839 175.562 30.8269 178.405 30.8269H185.57C189.644 30.8269 192.42 31.2818 192.42 36.1252V36.1988C192.42 41.2162 188.253 41.3901 184.941 41.3901H179.95C175.943 41.3901 172.184 41.3901 172.184 36.0249V34.9344L172.17 34.9277Z" fill="#E31F26"/>
<path d="M196.2 30.1512C196.2 23.662 200.241 22.9261 204.087 22.9261H208.443C213.306 22.9261 216.812 24.2909 216.812 30.6797V32.68H198.91V33.8039C198.91 37.8713 200.676 38.9283 205.412 38.9283H209.138C212.55 38.9283 213.935 38.4399 214.096 35.7038H216.812V36.0516C216.812 40.1592 213.748 41.3835 208.697 41.3835H203.773C200.241 41.3835 196.2 40.6476 196.2 34.0514V30.1579V30.1512ZM214.096 29.0273C214.096 27.201 212.865 25.3813 208.443 25.3813H204.462C200.167 25.3813 199.157 26.1507 198.91 30.2248H214.096V29.034V29.0273Z" fill="#E31F26"/>
<path d="M221.367 15.7011H225.977L246.909 38.0185V15.7011H250V41.1025H245.391L224.458 18.7851V41.1025H221.367V15.7011Z" fill="#33BBED"/>
<path d="M48.0399 38.5603L55.2315 49.3243L62.4164 38.5603L68.0292 30.2181L60.6636 19.715L55.2315 27.7964L51.2711 21.8691L44.0862 32.6398L48.0399 38.5603Z" fill="#E31F26"/>
<path d="M36.6671 0H22.2839L25.0937 4.20123L36.8946 21.8691L44.0862 11.1052L36.6671 0Z" fill="#E31F26"/>
<path d="M97.217 0C93.2499 0 91.3567 1.96013 91.3567 6.21488V29.1879C91.3567 37.1956 88.1456 33.1014 88.1456 33.1014L70.0294 5.96066C70.0294 5.96066 66.6444 0 60.8978 0H56.6497C50.8563 0 47.5783 5.88038 47.5783 5.88038L44.0862 11.1052L51.2778 21.8691L56.1547 14.5705C56.1547 14.5705 56.9575 13.0318 58.7771 13.0318C60.5967 13.0318 61.4664 14.6642 61.4664 14.6642L81.0008 43.9122C81.0008 43.9122 83.6634 49.5317 89.6642 49.5317H96.2269C99.8194 49.5317 102.897 47.2772 102.897 41.1694V6.21488C102.897 2.04041 101.197 0 97.2237 0H97.217Z" fill="#33BBED"/>
<path d="M32.9342 27.7964L14.3765 0H0L2.78967 4.18116L25.7493 38.5603L32.9342 49.3243L40.1325 38.5603L44.0862 32.6398L36.8946 21.8691L32.9342 27.7964Z" fill="#33BBED"/>
<path d="M36.8946 21.8691L44.0862 32.6398L51.2711 21.8691L44.0862 11.1052L36.8946 21.8691Z" fill="#823336"/>
</g>
<defs>
<clipPath id="clip0_2_2">
<rect width="250" height="49.525" fill="white"/>
</clipPath>
</defs>
</svg>
