<svg xmlns="http://www.w3.org/2000/svg" width="24" height="24" viewBox="0 0 24 24">
  <g id="그룹_39030" data-name="그룹 39030" transform="translate(-3419 -3611.001)">
    <g id="그룹_37317" data-name="그룹 37317" transform="translate(3424 3616.001)">
      <path id="패스_15472" data-name="패스 15472" d="M-5338.241,1219.785l-6.619,6.619a4.324,4.324,0,0,1-6.115,0,4.324,4.324,0,0,1,0-6.115l6.619-6.619a2.883,2.883,0,0,1,4.077,0,2.883,2.883,0,0,1,0,4.077l-6.626,6.619a1.442,1.442,0,0,1-2.038,0,1.443,1.443,0,0,1,0-2.038l6.115-6.108" transform="translate(5352.241 -1212.826)" fill="none" stroke="#767676" stroke-linecap="round" stroke-linejoin="round" stroke-width="1.2"/>
    </g>
    <rect id="사각형_36506" data-name="사각형 36506" width="24" height="24" transform="translate(3419 3611.001)" fill="none" opacity="0.2"/>
  </g>
</svg>
