<svg xmlns="http://www.w3.org/2000/svg" width="16.5" height="15.509" viewBox="0 0 16.5 15.509">
  <path id="패스_16063" data-name="패스 16063" d="M469.75,18.167v3.667a.919.919,0,0,0,.917.917h2.75l3.015,3.016A.92.92,0,0,0,478,25.115V14.876a.92.92,0,0,0-1.568-.651l-3.015,3.025h-2.75A.919.919,0,0,0,469.75,18.167ZM482.125,20a4.125,4.125,0,0,0-2.292-3.694v7.379A4.1,4.1,0,0,0,482.125,20Zm-2.292-6.921v.183a.854.854,0,0,0,.55.779,6.417,6.417,0,0,1,0,11.917.839.839,0,0,0-.55.779v.183a.827.827,0,0,0,1.11.779,8.24,8.24,0,0,0,0-15.4A.823.823,0,0,0,479.833,13.079Z" transform="translate(-469.75 -12.244)" fill="#1d1d1d"/>
</svg>
