<svg xmlns="http://www.w3.org/2000/svg" width="20.291" height="20.291" viewBox="0 0 20.291 20.291">
  <g id="ico-user-profile" transform="translate(-1.855 -1.855)">
    <path id="패스_15916" data-name="패스 15916" d="M21.5,12A9.5,9.5,0,1,1,12,2.5,9.5,9.5,0,0,1,21.5,12Z" fill="none" stroke="#dedede" stroke-width="1.2"/>
    <path id="패스_15917" data-name="패스 15917" d="M12,21.545A9.545,9.545,0,1,0,2.455,12,9.545,9.545,0,0,0,12,21.545Z" fill="none" stroke="#dedede" stroke-width="1.2"/>
    <path id="패스_15918" data-name="패스 15918" d="M16.545,16.414V15.232a2.321,2.321,0,0,0-2.273-2.364H9.727a2.321,2.321,0,0,0-2.273,2.364v1.182" fill="none" stroke="#dedede" stroke-linecap="round" stroke-linejoin="round" stroke-width="1.2"/>
    <path id="패스_15919" data-name="패스 15919" d="M11.773,10.587A2.045,2.045,0,1,0,9.727,8.542,2.045,2.045,0,0,0,11.773,10.587Z" fill="none" stroke="#dedede" stroke-linecap="round" stroke-linejoin="round" stroke-width="1.2"/>
    <path id="패스_15920" data-name="패스 15920" d="M21.5,12A9.5,9.5,0,1,1,12,2.5,9.5,9.5,0,0,1,21.5,12Z" fill="none" stroke="#dedede" stroke-width="1.2"/>
    <path id="패스_15921" data-name="패스 15921" d="M12,21.545A9.545,9.545,0,1,0,2.455,12,9.545,9.545,0,0,0,12,21.545Z" fill="none" stroke="#dedede" stroke-width="1.2"/>
    <path id="패스_15922" data-name="패스 15922" d="M16.545,16.414V15.232a2.321,2.321,0,0,0-2.273-2.364H9.727a2.321,2.321,0,0,0-2.273,2.364v1.182" fill="none" stroke="#dedede" stroke-linecap="round" stroke-linejoin="round" stroke-width="1.2"/>
    <path id="패스_15923" data-name="패스 15923" d="M11.773,10.587A2.045,2.045,0,1,0,9.727,8.542,2.045,2.045,0,0,0,11.773,10.587Z" fill="none" stroke="#dedede" stroke-linecap="round" stroke-linejoin="round" stroke-width="1.2"/>
  </g>
</svg>
